<svg aria-hidden="true" style="position: absolute; width: 0; height: 0; overflow: hidden;" version="1.1"
  xmlns="http://www.w3.org/2000/svg" xmlns:xlink="http://www.w3.org/1999/xlink">
  <defs>
    <symbol id="icon-angle" viewBox="0 0 36 32">
      <path fill="#0f4485" style="fill: var(--color1, #0f4485)"
        d="M0 31.111c0-17.182 13.929-31.111 31.111-31.111h4.148c0.556 0 1.007 0.451 1.007 1.007v26.726c0 2.356-1.91 4.267-4.267 4.267h-31.111c-0.491 0-0.889-0.398-0.889-0.889z">
      </path>
    </symbol>
    <symbol id="icon-call" viewBox="0 0 32 32">
      <path fill="#0f4485" style="fill: var(--color1, #0f4485)"
        d="M30.526 27.298v-2.657c0-1.32-0.804-2.507-2.029-2.997l-3.283-1.313c-1.559-0.623-3.335 0.052-4.086 1.554l-0.286 0.571c0 0-4.035-0.807-7.263-4.035s-4.035-7.263-4.035-7.263l0.571-0.286c1.502-0.751 2.177-2.527 1.554-4.086l-1.313-3.283c-0.49-1.226-1.677-2.029-2.997-2.029h-2.657c-1.783 0-3.228 1.445-3.228 3.228 0 14.262 11.562 25.825 25.825 25.825 1.783 0 3.228-1.445 3.228-3.228z">
      </path>
    </symbol>
    <symbol id="icon-clock" viewBox="0 0 30 30">
      <path fill="#0f4485" style="fill: var(--color1, #0f4485)"
        d="M16 30.603c-8.065 0-14.603-6.538-14.603-14.603s6.538-14.603 14.603-14.603c8.065 0 14.603 6.538 14.603 14.603s-6.538 14.603-14.603 14.603zM17.095 8.698c0-0.605-0.49-1.095-1.095-1.095s-1.095 0.49-1.095 1.095v7.302c0 0.471 0.302 0.89 0.749 1.039l4.381 1.46c0.574 0.191 1.194-0.119 1.385-0.693s-0.119-1.194-0.693-1.385l-3.632-1.211v-6.512z">
      </path>
    </symbol>
    <symbol id="icon-facebook" viewBox="0 0 17 32">
      <path fill="#0f4485" style="fill: var(--color1, #0f4485)"
        d="M15.738 18l0.873-5.791h-5.461v-3.758c0-1.584 0.763-3.129 3.209-3.129h2.483v-4.931c0 0-2.253-0.391-4.407-0.391-4.497 0-7.436 2.774-7.436 7.795v4.414h-4.999v5.791h4.999v14h6.152v-14h4.587z">
      </path>
    </symbol>
    <symbol id="icon-hs11" viewBox="0 0 26 32">
      <path fill="#acacac" style="fill: var(--color2, #acacac); stroke: var(--color2, #acacac)" stroke="#acacac"
        stroke-linejoin="miter" stroke-linecap="butt" stroke-miterlimit="4" stroke-width="0.5333"
        d="M11.065 0.908c-3.531 0.266-5.835 0.71-8.238 1.593-0.996 0.372-1.381 0.611-1.653 1.049l-0.199 0.325-0.020 8.719-0.066 9.679 0.139 0.319c0.073 0.179 0.232 0.418 0.352 0.531 0.199 0.192 1.182 0.67 1.593 0.777l0.166 0.040 0.020 1.334c0.020 1.228 0.033 1.361 0.166 1.606 0.179 0.339 0.518 0.664 0.823 0.79 0.285 0.119 1.593 0.451 2.403 0.611l0.577 0.113v1.002c0 0.956 0.007 1.029 0.173 1.354 0.206 0.412 0.538 0.704 0.976 0.85 0.246 0.080 0.518 0.1 1.228 0.080 0.996-0.027 1.175-0.080 1.593-0.478 0.418-0.385 0.504-0.644 0.531-1.553l0.027-0.81h2.23l0.027 0.81c0.027 0.909 0.113 1.168 0.531 1.553 0.418 0.398 0.597 0.451 1.593 0.478 0.71 0.020 0.982 0 1.228-0.080 0.438-0.146 0.77-0.438 0.976-0.85 0.166-0.325 0.173-0.398 0.173-1.354v-1.002l0.584-0.113c0.803-0.159 2.111-0.491 2.396-0.611 0.305-0.126 0.644-0.451 0.823-0.79 0.133-0.246 0.146-0.378 0.166-1.593l0.020-1.334 0.445-0.153c0.962-0.339 1.367-0.617 1.626-1.102l0.146-0.265 0.053-9.752v-8.792l-0.186-0.319c-0.246-0.418-0.578-0.651-1.394-0.969-1.898-0.737-4.335-1.294-6.884-1.567-0.903-0.1-4.394-0.186-5.144-0.126zM16.063 2.163c1.128 0.113 2.31 0.299 3.385 0.531 1.62 0.352 3.837 1.109 4.029 1.381 0.086 0.126 0.1-0.661 0.1 8.593 0 7.461-0.073 9.447-0.126 9.546-0.193 0.358-2.848 1.221-4.972 1.606-4.886 0.889-10.481 0.571-14.67-0.83-1.042-0.345-1.633-0.617-1.719-0.783-0.053-0.093-0.020-2.171-0.020-9.546 0-9.924 0.007-8.466 0.113-8.599 0.239-0.272 2.257-0.969 3.923-1.341 1.533-0.345 2.828-0.518 5.091-0.684 0.71-0.053 3.963 0.027 4.866 0.126zM4.872 24.484c0.199 0.060 0.783 0.193 1.294 0.299 2.064 0.438 3.551 0.604 5.875 0.651 2.602 0.053 4.726-0.113 6.89-0.551 0.823-0.166 2.018-0.451 2.23-0.531 0.093-0.033 0.106 0.066 0.106 0.956 0 1.235-0.013 1.255-0.81 1.46-1.407 0.365-3.014 0.657-4.534 0.823-1.069 0.119-5.237 0.119-6.306 0-1.261-0.139-2.761-0.398-3.963-0.684-1.447-0.352-1.381-0.272-1.381-1.6 0-0.916 0.007-0.989 0.12-0.956 0.060 0.020 0.279 0.080 0.478 0.133zM9.638 28.712l0.876 0.086v0.69c0 0.671-0.007 0.69-0.193 0.883-0.192 0.186-0.212 0.192-0.903 0.192-0.73 0-1.036-0.080-1.122-0.299-0.020-0.060-0.040-0.471-0.040-0.909v-0.803l0.252 0.040c0.133 0.027 0.644 0.080 1.129 0.119zM17.285 29.363c0 0.438-0.020 0.843-0.040 0.903-0.086 0.219-0.392 0.299-1.122 0.299-0.69 0-0.71-0.007-0.903-0.192-0.186-0.193-0.192-0.212-0.192-0.883v-0.69l0.982-0.106c0.538-0.053 1.042-0.106 1.128-0.106 0.146-0.013 0.146 0 0.146 0.777z">
      </path>
      <path fill="#acacac" style="fill: var(--color2, #acacac); stroke: var(--color2, #acacac)" stroke="#acacac"
        stroke-linejoin="miter" stroke-linecap="butt" stroke-miterlimit="4" stroke-width="0.5333"
        d="M11.684 7.186c-2.157 0.418-3.684 2.264-3.684 4.447 0 0.763 0.133 1.314 0.478 2.031 0.511 1.069 1.726 2.058 2.874 2.343 1.673 0.418 3.266-0.040 4.454-1.294 1.819-1.918 1.593-4.945-0.491-6.618-0.996-0.803-2.39-1.148-3.631-0.909zM13.198 8.321c1.221 0.259 2.25 1.221 2.582 2.416 0.319 1.148 0.013 2.33-0.823 3.233-1.779 1.899-5.012 1.089-5.709-1.427-0.418-1.514 0.292-3.16 1.679-3.89 0.763-0.398 1.467-0.505 2.27-0.332z">
      </path>
      <path fill="#acacac" style="fill: var(--color2, #acacac); stroke: var(--color2, #acacac)" stroke="#acacac"
        stroke-linejoin="miter" stroke-linecap="butt" stroke-miterlimit="4" stroke-width="0.5333"
        d="M11.021 10.113c-0.119 0.113-0.166 0.232-0.166 0.412 0 0.226 0.060 0.305 0.724 0.969 0.717 0.717 0.73 0.73 0.982 0.69 0.312-0.053 0.485-0.252 0.485-0.564 0-0.212-0.073-0.312-0.717-0.956-0.617-0.617-0.75-0.717-0.929-0.717-0.146 0-0.272 0.060-0.378 0.166z">
      </path>
    </symbol>
    <symbol id="icon-hs12" viewBox="0 0 32 32">
      <path fill="#acacac" style="fill: var(--color2, #acacac)"
        d="M13.889 0h-0.030c-0.169-0-0.301-0-0.425 0.007-1.578 0.096-2.96 1.092-3.55 2.559-0.046 0.116-0.088 0.24-0.141 0.401l-0.048 0.143c-0.028 0.085-0.036 0.108-0.043 0.127-0.238 0.658-1.029 1.207-1.865 1.228l-2.708 0.132c-1.17 0.138-2.172 0.43-3.019 1.119-0.296 0.241-0.566 0.511-0.807 0.807-0.689 0.847-0.982 1.849-1.119 3.019-0.133 1.131-0.133 2.553-0.133 4.316v0.117c-0 0.423-0 0.819 0.034 1.152 0.037 0.369 0.124 0.761 0.359 1.14 0.077 0.123 0.163 0.239 0.259 0.348 0.252 0.285 0.544 0.469 0.837 0.605 0.004 2.404 0.035 4.834 0.25 6.915 0.126 1.219 0.32 2.364 0.628 3.34 0.303 0.96 0.75 1.869 1.457 2.498 1.226 1.089 2.768 1.57 4.694 1.8 1.89 0.226 4.313 0.226 7.405 0.226h0.152c3.093 0 5.515 0 7.405-0.226 1.926-0.23 3.468-0.71 4.694-1.8 0.707-0.629 1.154-1.538 1.457-2.498 0.308-0.976 0.502-2.121 0.628-3.34 0.216-2.081 0.246-4.511 0.25-6.915 0.293-0.136 0.586-0.32 0.837-0.605 0.096-0.109 0.182-0.225 0.259-0.348 0.235-0.378 0.321-0.77 0.359-1.14 0.034-0.334 0.034-0.73 0.034-1.152v-0.117c0-1.764 0-3.186-0.133-4.316-0.138-1.17-0.43-2.172-1.119-3.019-0.241-0.296-0.511-0.566-0.807-0.807-0.847-0.689-1.849-0.982-3.019-1.119l-2.708-0.132c-0.836-0.021-1.626-0.57-1.864-1.228-0.007-0.019-0.015-0.043-0.043-0.127l-0.048-0.143c-0.053-0.16-0.095-0.285-0.142-0.401-0.59-1.467-1.972-2.463-3.55-2.559-0.124-0.008-0.256-0.007-0.425-0.007h-4.254zM9.407 6.698h13.186c1.82 0 3.094 0.003 4.069 0.118 0.961 0.113 1.486 0.321 1.87 0.634 0.177 0.144 0.34 0.307 0.484 0.484 0.313 0.384 0.521 0.91 0.634 1.87 0.116 0.985 0.118 2.276 0.118 4.126 0 0.485-0.001 0.766-0.022 0.973-0.012 0.122-0.028 0.172-0.034 0.186-0.011 0.017-0.023 0.034-0.037 0.049-0.012 0.010-0.055 0.039-0.169 0.086-0.192 0.080-0.461 0.162-0.926 0.301l-7.743 2.323v-0.36c0-1.027-0.833-1.86-1.86-1.86h-5.953c-1.027 0-1.86 0.833-1.86 1.86v0.36l-7.743-2.323c-0.465-0.14-0.734-0.222-0.926-0.301-0.114-0.047-0.157-0.076-0.169-0.086l8.837 2.71-8.874-2.759c-0.006-0.014-0.022-0.064-0.034-0.186-0.021-0.207-0.022-0.488-0.022-0.973 0-1.851 0.002-3.141 0.118-4.126 0.113-0.961 0.321-1.486 0.634-1.87 0.144-0.177 0.307-0.34 0.484-0.484 0.384-0.313 0.909-0.521 1.87-0.634 0.975-0.115 2.249-0.118 4.069-0.118zM13.889 2.233h4.224c0.213 0 0.272 0.001 0.32 0.003 0.717 0.043 1.346 0.496 1.614 1.163 0.018 0.045 0.037 0.1 0.105 0.303l0.042 0.127c0.022 0.067 0.040 0.119 0.058 0.168 0.059 0.162 0.128 0.319 0.207 0.468h-8.914c0.079-0.15 0.148-0.306 0.207-0.468 0.018-0.049 0.035-0.101 0.058-0.168l0.042-0.127c0.067-0.202 0.087-0.258 0.104-0.303 0.268-0.667 0.896-1.12 1.614-1.163 0.048-0.003 0.107-0.003 0.32-0.003zM3.724 17.948l7.439 2.232v0.526c0 0.761 0.463 1.445 1.169 1.727l1.042 0.417c1.685 0.674 3.566 0.674 5.251 0l1.042-0.417c0.706-0.283 1.169-0.967 1.169-1.727v-0.526l7.439-2.232c-0.010 2.138-0.053 4.193-0.236 5.958-0.119 1.146-0.293 2.125-0.537 2.899-0.249 0.79-0.538 1.258-0.811 1.501-0.736 0.654-1.753 1.046-3.475 1.252-1.742 0.208-4.031 0.21-7.217 0.21s-5.475-0.002-7.217-0.21c-1.722-0.206-2.739-0.597-3.475-1.252-0.273-0.243-0.562-0.711-0.811-1.501-0.244-0.774-0.418-1.753-0.537-2.899-0.183-1.765-0.226-3.82-0.236-5.958zM13.395 17.86h5.209v2.593l-0.808 0.323c-1.153 0.461-2.44 0.461-3.593 0l-0.808-0.323v-2.593z">
      </path>
    </symbol>
    <symbol id="icon-hs13" viewBox="0 0 57 32">
      <path fill="#acacac" style="fill: var(--color2, #acacac); stroke: var(--color2, #acacac)" stroke="#acacac"
        stroke-linejoin="miter" stroke-linecap="butt" stroke-miterlimit="4" stroke-width="0.7111"
        d="M11.54 1.254c-0.213 0.075-0.629 0.469-0.778 0.725-0.075 0.128-0.149 0.906-0.181 1.865l-0.053 1.652-2.078 0.064c-1.14 0.032-2.088 0.064-2.11 0.075s-0.096 0.17-0.17 0.362c-0.202 0.469-0.075 0.852 0.373 1.076 0.33 0.17 0.778 0.181 5.722 0.16l5.37-0.032 0.256-0.298c0.309-0.362 0.33-0.703 0.032-1.076l-0.213-0.277h-5.423v-2.664h28.236l-0.021 11.102-0.032 11.113-6.212 0.032c-4.912 0.021-6.212 0-6.254-0.107-0.49-1.428-0.938-2.11-1.811-2.77-1.385-1.055-3.367-1.215-4.965-0.394-0.97 0.49-1.854 1.566-2.248 2.706l-0.181 0.533-3.25 0.032-3.26 0.021v-4.901h1.438c1.3 0 1.46-0.021 1.652-0.213 0.32-0.32 0.32-0.884-0.011-1.225-0.202-0.213-0.352-0.213-5.967-0.213h-5.764l-0.256 0.298c-0.309 0.362-0.33 0.703-0.032 1.076l0.213 0.277h7.022v3.026c0 2.813 0.011 3.037 0.202 3.271l0.202 0.256 7.831 0.107 0.128 0.426c0.49 1.662 1.95 2.941 3.729 3.26 2.142 0.394 4.539-1.065 5.146-3.122l0.181-0.618h15.46l0.139 0.533c0.298 1.151 1.289 2.28 2.493 2.824 2.515 1.161 5.434-0.096 6.35-2.717l0.202-0.586 1.002-0.053c1.108-0.064 1.438-0.202 1.801-0.778 0.202-0.32 0.213-0.501 0.181-3.484-0.032-3.090-0.032-3.154-0.298-3.783-0.149-0.352-1.343-2.557-2.642-4.901-2.493-4.486-2.813-4.944-3.601-5.157-0.256-0.075-1.662-0.117-3.633-0.117h-3.218l-0.032-3.228c-0.032-3.175-0.032-3.218-0.277-3.569-0.512-0.714 0.629-0.661-15.546-0.65-8.076 0-14.757 0.032-14.842 0.064zM48.79 10.545c0.352 0.405 4.848 8.609 4.997 9.11 0.117 0.405 0.16 1.14 0.16 3.015v2.493l-1.289-0.064-0.181-0.533c-0.81-2.387-3.218-3.708-5.615-3.090-1.545 0.405-2.856 1.673-3.303 3.197-0.128 0.426-0.128 0.426-0.735 0.458l-0.597 0.032v-14.821h3.196c2.994 0 3.207 0.011 3.367 0.202zM24.315 23.193c0.661 0.192 1.406 0.831 1.737 1.47 0.309 0.597 0.373 1.598 0.149 2.27-0.234 0.703-0.81 1.353-1.492 1.705-0.661 0.341-1.779 0.384-2.44 0.096-0.618-0.266-1.3-0.959-1.566-1.577-0.288-0.682-0.266-1.822 0.053-2.483 0.448-0.906 1.566-1.63 2.568-1.641 0.234-0.011 0.682 0.064 0.991 0.16zM49.078 23.236c2.025 0.756 2.547 3.484 0.948 4.923-0.618 0.554-1.119 0.756-1.939 0.756-1.652 0.011-2.856-1.108-2.962-2.738-0.053-0.948 0.202-1.63 0.874-2.291 0.831-0.82 1.982-1.065 3.079-0.65z">
      </path>
      <path fill="#acacac" style="fill: var(--color2, #acacac); stroke: var(--color2, #acacac)" stroke="#acacac"
        stroke-linejoin="miter" stroke-linecap="butt" stroke-miterlimit="4" stroke-width="0.7111"
        d="M11.061 9.086c-0.458 0.266-0.469 0.352-0.479 3.037v2.589h-1.279c-1.225 0-1.3 0.011-1.545 0.266-0.352 0.341-0.352 0.831 0 1.172l0.256 0.266h7.821c7.757 0 7.831 0 8.108-0.224 0.394-0.309 0.394-0.948 0-1.257-0.277-0.224-0.384-0.224-5.967-0.224h-5.69v-5.136l-0.309-0.309c-0.33-0.33-0.575-0.373-0.916-0.181z">
      </path>
      <path fill="#acacac" style="fill: var(--color2, #acacac); stroke: var(--color2, #acacac)" stroke="#acacac"
        stroke-linejoin="miter" stroke-linecap="butt" stroke-miterlimit="4" stroke-width="0.7111"
        d="M1.439 10.407c-0.362 0.256-0.33 1.012 0.053 1.321 0.277 0.213 0.362 0.224 3.527 0.192l3.239-0.032 0.202-0.256c0.277-0.341 0.266-0.874-0.043-1.161-0.245-0.234-0.309-0.234-3.495-0.234-2.76 0-3.282 0.021-3.484 0.17z">
      </path>
    </symbol>
    <symbol id="icon-hs14" viewBox="0 0 29 32">
      <path fill="#acacac" style="fill: var(--color2, #acacac); stroke: var(--color2, #acacac)" stroke="#acacac"
        stroke-linejoin="miter" stroke-linecap="butt" stroke-miterlimit="4" stroke-width="0.6621"
        d="M12.766 1.287c-0.164 0.096-0.385 0.289-0.491 0.424-0.135 0.183-0.462 0.337-1.147 0.559-3.093 0.983-5.579 3.122-7.025 6.042-0.626 1.262-0.886 2.178-1.166 4.134-0.039 0.241-0.106 0.318-0.328 0.366-0.385 0.087-0.993 0.549-1.243 0.944-0.434 0.713-0.424 1.792 0.029 2.476 0.222 0.337 0.222 0.347 0.048 0.569-0.289 0.357-0.395 0.954-0.357 1.985 0.029 0.752 0.087 1.060 0.251 1.407 0.414 0.848 1.407 1.609 2.39 1.831l0.491 0.116 0.164 0.588c0.443 1.6 1.812 3.748 3.353 5.223 1.417 1.359 2.833 2.236 4.635 2.862 0.829 0.279 0.973 0.299 2.235 0.299 1.272 0 1.397-0.010 2.265-0.308 2.592-0.896 4.914-2.727 6.514-5.126 0.646-0.973 1.291-2.322 1.494-3.122 0.096-0.385 0.135-0.434 0.453-0.491 0.983-0.173 2.053-0.954 2.505-1.831 0.212-0.405 0.26-0.646 0.289-1.465 0.038-1.012-0.048-1.503-0.366-1.956-0.164-0.231-0.164-0.251 0.106-0.723 0.549-0.964 0.279-2.303-0.597-2.929-0.212-0.164-0.511-0.318-0.665-0.347-0.299-0.067-0.318-0.116-0.434-1.060-0.183-1.503-1.021-3.633-1.937-4.943-1.58-2.264-3.854-3.903-6.475-4.654-0.424-0.116-0.674-0.26-0.848-0.472-0.453-0.53-0.646-0.578-2.322-0.578-1.32 0-1.561 0.029-1.821 0.183zM15.859 3.050c0.039 0.414 0.819 9.443 0.819 9.578 0 0.019-0.935 0.039-2.072 0.039-1.59 0-2.072-0.029-2.072-0.125 0-0.231 0.781-9.366 0.829-9.684l0.048-0.308h2.39l0.058 0.501zM19.636 4.495c1.763 1.012 3.247 2.573 4.144 4.365 0.501 0.993 0.829 2.13 1.031 3.585l0.029 0.222h-3.353c-1.85 0-3.363-0.029-3.363-0.077 0-0.039-0.173-2.081-0.385-4.548s-0.385-4.49-0.385-4.5c0-0.096 1.715 0.626 2.284 0.954zM11.812 4.014c-0.068 0.569-0.723 8.239-0.723 8.47 0 0.173-0.096 0.183-3.363 0.183h-3.363l0.058-0.462c0.019-0.251 0.145-0.848 0.27-1.339 0.79-3.161 3.17-5.839 6.244-7.025 0.867-0.328 0.935-0.318 0.877 0.173zM26.246 14.228c0.52 0.27 0.626 0.944 0.202 1.339l-0.25 0.231-5.040 0.029-9.186 0.029-0.193 0.25c-0.27 0.337-0.25 0.569 0.077 0.906l0.28 0.279h11.575v2.014c0 1.869-0.019 2.072-0.25 2.862-0.973 3.392-4.317 6.639-7.612 7.42-2.255 0.53-4.982-0.549-7.314-2.891-1.041-1.050-1.638-1.879-2.264-3.132-0.655-1.32-0.771-1.937-0.771-4.269v-2.004h3.854c2.611 0 7.403-0.038 7.557-0.106 0.231-0.106 0.453-0.453 0.453-0.703 0-0.068-0.087-0.241-0.202-0.385l-0.193-0.251h-8.579c-3.296 0-5.184-0.039-5.358-0.096-0.357-0.145-0.511-0.366-0.52-0.781 0-0.366 0.125-0.578 0.434-0.742 0.279-0.164 23.011-0.154 23.3 0zM4.055 18.93c0 1.079-0.039 1.638-0.096 1.638-0.164 0-0.703-0.289-0.944-0.52-0.395-0.357-0.501-0.675-0.501-1.503 0-0.703 0.029-0.8 0.241-1.012 0.193-0.202 0.328-0.241 0.771-0.241h0.53v1.638zM26.458 17.533c0.212 0.202 0.241 0.318 0.241 0.954 0 0.79-0.096 1.147-0.414 1.484-0.212 0.231-0.848 0.597-1.031 0.597-0.058 0-0.096-0.569-0.096-1.638v-1.638h0.53c0.443 0 0.578 0.039 0.771 0.241z">
      </path>
    </symbol>
    <symbol id="icon-hs31" viewBox="0 0 42 32">
      <path fill="#787878" style="fill: var(--color3, #787878)"
        d="M5.895 19.526c0-0.61 0.495-1.105 1.105-1.105h3.561c0.61 0 1.105 0.495 1.105 1.105s-0.495 1.105-1.105 1.105h-3.561c-0.61 0-1.105-0.495-1.105-1.105z">
      </path>
      <path fill="#787878" style="fill: var(--color3, #787878)"
        d="M5.895 24.684c0-0.61 0.495-1.105 1.105-1.105h8.105c0.61 0 1.105 0.495 1.105 1.105s-0.495 1.105-1.105 1.105h-8.105c-0.61 0-1.105-0.495-1.105-1.105z">
      </path>
      <path fill="#787878" style="fill: var(--color3, #787878)"
        d="M16.21 2.335c-0.678-0.115-1.603-0.124-3.272-0.124-2.825 0-4.832 0.002-6.354 0.206-1.491 0.2-2.348 0.574-2.971 1.197s-0.998 1.478-1.197 2.961c-0.204 1.514-0.206 3.511-0.206 6.321v5.895c0 2.81 0.002 4.806 0.206 6.321 0.199 1.483 0.573 2.337 1.197 2.961s1.478 0.997 2.961 1.197c1.514 0.204 3.511 0.206 6.321 0.206h5.895c2.81 0 4.806-0.002 6.321-0.206 1.483-0.199 2.337-0.573 2.961-1.197s0.997-1.478 1.197-2.961c0.204-1.514 0.206-3.511 0.206-6.321v-0.644c0-2.264-0.016-3.337-0.256-4.145h-4.612c-1.669 0-3.034 0-4.111-0.145-1.126-0.151-2.102-0.479-2.881-1.258s-1.107-1.755-1.258-2.881c-0.145-1.077-0.145-2.441-0.145-4.111v-3.271zM18.421 3.477v2.049c0 1.768 0.002 2.983 0.125 3.895 0.118 0.881 0.33 1.313 0.63 1.613s0.732 0.512 1.612 0.63c0.913 0.123 2.127 0.125 3.895 0.125h2.976c-0.437-0.424-0.997-0.932-1.723-1.586l-5.834-5.251c-0.715-0.644-1.248-1.119-1.682-1.476zM13.153 0c2.040-0.001 3.359-0.001 4.572 0.465s2.189 1.344 3.698 2.703c0.052 0.047 0.105 0.094 0.158 0.142l5.834 5.251c0.062 0.056 0.123 0.111 0.184 0.166 1.744 1.569 2.872 2.583 3.479 3.946s0.606 2.88 0.605 5.226c0 0.082 0 0.164 0 0.248v0.727c0 2.708 0 4.853-0.226 6.532-0.232 1.728-0.722 3.126-1.825 4.229s-2.501 1.592-4.229 1.825c-1.679 0.226-3.824 0.226-6.532 0.226h-6.061c-2.708 0-4.853 0-6.532-0.226-1.728-0.232-3.126-0.722-4.229-1.825s-1.592-2.501-1.825-4.229c-0.226-1.679-0.226-3.824-0.226-6.532v-6.061c-0-2.708-0-4.853 0.226-6.532 0.232-1.728 0.722-3.126 1.825-4.229s2.507-1.593 4.241-1.825c1.686-0.226 3.842-0.226 6.565-0.226h0.083c0.072 0 0.144-0 0.215-0z">
      </path>
      <path fill="#fafafa" style="fill: var(--color4, #fafafa)"
        d="M31.373 12.425h0.621c5.318 0 9.629 4.311 9.629 9.629v0c0 5.318-4.311 9.629-9.629 9.629h-0.621c-5.318 0-9.629-4.311-9.629-9.629v-0c0-5.318 4.311-9.629 9.629-9.629z">
      </path>
      <path fill="none" stroke="#0f4485" style="stroke: var(--color1, #0f4485)" stroke-linejoin="miter"
        stroke-linecap="round" stroke-miterlimit="4" stroke-width="3.3684"
        d="M25.956 23.741l1.012 1.307c1.049 1.355 3.113 1.295 4.082-0.118l6.696-9.772"></path>
    </symbol>
    <symbol id="icon-hs32" viewBox="0 0 43 32">
      <path fill="#787878" style="fill: var(--color3, #787878)"
        d="M21.379 16.948c0.746 0 1.351-0.619 1.351-1.384s-0.605-1.384-1.351-1.384c-0.746 0-1.351 0.619-1.351 1.384s0.605 1.384 1.351 1.384z">
      </path>
      <path fill="#787878" style="fill: var(--color3, #787878)"
        d="M21.379 22.483c0.746 0 1.351-0.619 1.351-1.384s-0.605-1.384-1.351-1.384c-0.746 0-1.351 0.619-1.351 1.384s0.605 1.384 1.351 1.384z">
      </path>
      <path fill="#787878" style="fill: var(--color3, #787878)"
        d="M15.974 15.565c0 0.764-0.605 1.384-1.351 1.384s-1.351-0.619-1.351-1.384 0.605-1.384 1.351-1.384c0.746 0 1.351 0.619 1.351 1.384z">
      </path>
      <path fill="#787878" style="fill: var(--color3, #787878)"
        d="M15.974 21.099c0 0.764-0.605 1.384-1.351 1.384s-1.351-0.619-1.351-1.384 0.605-1.384 1.351-1.384c0.746 0 1.351 0.619 1.351 1.384z">
      </path>
      <path fill="#787878" style="fill: var(--color3, #787878)"
        d="M7.866 16.948c0.746 0 1.351-0.619 1.351-1.384s-0.605-1.384-1.351-1.384c-0.746 0-1.351 0.619-1.351 1.384s0.605 1.384 1.351 1.384z">
      </path>
      <path fill="#787878" style="fill: var(--color3, #787878)"
        d="M7.866 22.483c0.746 0 1.351-0.619 1.351-1.384s-0.605-1.384-1.351-1.384c-0.746 0-1.351 0.619-1.351 1.384s0.605 1.384 1.351 1.384z">
      </path>
      <path fill="#787878" style="fill: var(--color3, #787878)"
        d="M7.866 0c-0.56 0-1.014 0.465-1.014 1.038v1.144c-0.351 0.027-0.684 0.062-0.999 0.105-1.584 0.218-2.867 0.678-3.878 1.713s-1.46 2.348-1.673 3.97c-0.207 1.576-0.207 3.59-0.207 6.133v2.923c-0 2.543-0 4.557 0.207 6.133 0.213 1.622 0.662 2.935 1.673 3.97s2.294 1.495 3.878 1.713c1.54 0.212 3.507 0.212 5.99 0.212h5.558c2.483 0 4.451 0 5.99-0.212 1.584-0.218 2.867-0.678 3.878-1.713s1.46-2.348 1.673-3.97c0.207-1.576 0.207-3.59 0.207-6.133v-2.923c0-2.543 0-4.556-0.207-6.133-0.213-1.622-0.662-2.935-1.673-3.97s-2.294-1.495-3.878-1.713c-0.315-0.043-0.647-0.078-0.999-0.105v-1.144c0-0.573-0.454-1.038-1.014-1.038s-1.014 0.465-1.014 1.038v1.055c-0.895-0.018-1.88-0.018-2.964-0.018h-5.558c-1.084 0-2.070 0-2.964 0.018v-1.055c0-0.573-0.454-1.038-1.014-1.038zM6.123 4.344c1.389-0.191 3.219-0.193 5.796-0.193h5.405c2.577 0 4.407 0.002 5.796 0.193 1.36 0.187 2.143 0.538 2.715 1.124s0.915 1.388 1.098 2.779c0.031 0.236 0.057 0.484 0.078 0.746h-24.78c0.022-0.262 0.048-0.51 0.078-0.746 0.183-1.392 0.526-2.194 1.098-2.78s1.355-0.936 2.715-1.124zM2.122 14.181c0-1.182 0-2.21 0.018-3.113h24.965c0.017 0.903 0.018 1.931 0.018 3.113v2.767c0 2.638-0.002 4.512-0.189 5.934-0.183 1.392-0.526 2.194-1.098 2.779s-1.355 0.936-2.715 1.124c-1.389 0.191-3.219 0.193-5.796 0.193h-5.405c-2.577 0-4.407-0.002-5.796-0.193-1.36-0.187-2.143-0.538-2.715-1.124s-0.915-1.387-1.098-2.779c-0.187-1.422-0.189-3.296-0.189-5.934v-2.767z">
      </path>
      <path fill="#fafafa" style="fill: var(--color4, #fafafa)"
        d="M29.719 8.545h1.139c6.293 0 11.394 5.101 11.394 11.394v0c0 6.293-5.101 11.394-11.394 11.394h-1.139c-6.293 0-11.394-5.101-11.394-11.394v-0c0-6.293 5.101-11.394 11.394-11.394z">
      </path>
      <path fill="#0f4485" style="fill: var(--color1, #0f4485); stroke: var(--color1, #0f4485)" stroke="#0f4485"
        stroke-linejoin="round" stroke-linecap="round" stroke-miterlimit="4" stroke-width="0.7619"
        d="M30.004 11.566c-4.467 0-8.088 3.621-8.088 8.088s3.621 8.088 8.088 8.088c4.467 0 8.088-3.621 8.088-8.088s-3.621-8.088-8.088-8.088zM20.604 19.655c0-5.191 4.209-9.4 9.4-9.4s9.4 4.209 9.4 9.4c0 5.191-4.209 9.4-9.4 9.4s-9.4-4.209-9.4-9.4zM30.004 15.501c0.362 0 0.656 0.294 0.656 0.656v3.226l1.994 1.994c0.256 0.256 0.256 0.671 0 0.927s-0.671 0.256-0.927 0l-2.186-2.186c-0.123-0.123-0.192-0.29-0.192-0.464v-3.498c0-0.362 0.294-0.656 0.656-0.656z">
      </path>
    </symbol>
    <symbol id="icon-hs33" viewBox="0 0 34 32">
      <path fill="#787878" style="fill: var(--color3, #787878); stroke: var(--color3, #787878)" stroke="#787878"
        stroke-linejoin="miter" stroke-linecap="butt" stroke-miterlimit="4" stroke-width="0.3556"
        d="M11.856 0.712c-0.107 0.063-0.252 0.189-0.322 0.278-0.088 0.12-0.303 0.221-0.751 0.366-2.026 0.644-3.654 2.045-4.6 3.958-0.41 0.827-0.581 1.427-0.764 2.708-0.025 0.158-0.069 0.208-0.215 0.24-0.252 0.057-0.65 0.36-0.814 0.619-0.284 0.467-0.278 1.174 0.019 1.622 0.145 0.221 0.145 0.227 0.032 0.372-0.189 0.234-0.259 0.625-0.234 1.3 0.019 0.492 0.057 0.694 0.164 0.922 0.271 0.555 0.921 1.054 1.565 1.199l0.322 0.076 0.107 0.385c0.29 1.048 1.186 2.455 2.196 3.421 0.928 0.89 1.855 1.464 3.035 1.875 0.543 0.183 0.637 0.196 1.464 0.196 0.833 0 0.915-0.006 1.483-0.202 1.698-0.587 3.218-1.786 4.266-3.358 0.423-0.638 0.846-1.521 0.978-2.045 0.063-0.252 0.088-0.284 0.297-0.322 0.644-0.114 1.344-0.625 1.641-1.199 0.139-0.265 0.17-0.423 0.189-0.959 0.025-0.663-0.032-0.985-0.24-1.281-0.107-0.152-0.107-0.164 0.069-0.473 0.36-0.631 0.183-1.509-0.391-1.919-0.139-0.107-0.334-0.208-0.435-0.227-0.196-0.044-0.208-0.076-0.284-0.694-0.12-0.985-0.669-2.38-1.268-3.238-1.035-1.483-2.524-2.556-4.241-3.049-0.278-0.076-0.442-0.17-0.555-0.309-0.297-0.347-0.423-0.379-1.521-0.379-0.865 0-1.022 0.019-1.193 0.12zM13.881 1.868c0.025 0.271 0.536 6.186 0.536 6.274 0 0.013-0.612 0.025-1.357 0.025-1.041 0-1.357-0.019-1.357-0.082 0-0.151 0.511-6.135 0.543-6.344l0.032-0.202h1.565l0.038 0.328zM16.355 2.814c1.155 0.663 2.127 1.685 2.713 2.859 0.328 0.65 0.543 1.395 0.675 2.348l0.019 0.145h-2.196c-1.212 0-2.202-0.019-2.202-0.050 0-0.025-0.114-1.363-0.252-2.979s-0.252-2.941-0.252-2.948c0-0.063 1.123 0.41 1.496 0.625zM11.231 2.499c-0.044 0.372-0.473 5.397-0.473 5.548 0 0.114-0.063 0.12-2.202 0.12h-2.202l0.038-0.303c0.013-0.164 0.095-0.555 0.177-0.877 0.517-2.070 2.076-3.825 4.089-4.602 0.568-0.215 0.612-0.208 0.574 0.114zM20.684 9.19c0.341 0.177 0.41 0.619 0.133 0.877l-0.164 0.151-3.3 0.019-6.015 0.019-0.126 0.164c-0.177 0.221-0.164 0.372 0.050 0.593l0.183 0.183h7.58v1.319c0 1.225-0.013 1.357-0.164 1.875-0.637 2.222-2.827 4.349-4.985 4.86-1.477 0.347-3.263-0.36-4.79-1.894-0.681-0.688-1.073-1.231-1.483-2.051-0.429-0.865-0.505-1.269-0.505-2.796v-1.313h2.524c1.71 0 4.848-0.025 4.949-0.069 0.151-0.069 0.297-0.297 0.297-0.461 0-0.044-0.057-0.158-0.133-0.252l-0.126-0.164h-5.618c-2.158 0-3.395-0.025-3.509-0.063-0.234-0.095-0.334-0.24-0.341-0.511 0-0.24 0.082-0.379 0.284-0.486 0.183-0.107 15.070-0.101 15.259 0zM6.151 12.27c0 0.707-0.025 1.073-0.063 1.073-0.107 0-0.461-0.189-0.618-0.341-0.259-0.234-0.328-0.442-0.328-0.985 0-0.461 0.019-0.524 0.158-0.663 0.126-0.133 0.215-0.158 0.505-0.158h0.347v1.073zM20.823 11.355c0.139 0.133 0.158 0.208 0.158 0.625 0 0.518-0.063 0.751-0.271 0.972-0.139 0.151-0.555 0.391-0.675 0.391-0.038 0-0.063-0.372-0.063-1.073v-1.073h0.347c0.29 0 0.379 0.025 0.505 0.158z">
      </path>
      <path fill="none" stroke="#787878" style="stroke: var(--color3, #787878)" stroke-linejoin="miter"
        stroke-linecap="round" stroke-miterlimit="4" stroke-width="1.363"
        d="M1.111 27.086c0-5.375 4.222-6.527 7.485-6.527 0.704-0.064 2.073-0.384 1.919-1.152M23.567 27.086c0-5.567-3.647-6.527-6.142-6.527-1.088 0-1.721 0.182-2.314-0.707">
      </path>
      <path fill="#fafafa" style="fill: var(--color4, #fafafa)"
        d="M23.403 20.462h-0c3.047 0 5.518 2.47 5.518 5.518v0.003c0 3.047-2.47 5.518-5.518 5.518h0c-3.047 0-5.518-2.47-5.518-5.518v-0.003c0-3.047 2.47-5.518 5.518-5.518z">
      </path>
      <path fill="#0f4485" style="fill: var(--color1, #0f4485)"
        d="M27.932 15.628c-2.101 0.239-3.882 1.675-4.557 3.67-0.192 0.568-0.261 0.991-0.278 1.709l-0.013 0.658-2.217 2.226c-1.392 1.401-2.285 2.324-2.4 2.495-1.166 1.751-0.517 4.122 1.38 5.007 0.457 0.214 0.888 0.308 1.439 0.312 0.606 0.004 1.046-0.103 1.602-0.384 0.38-0.197 0.401-0.214 2.695-2.499l2.311-2.307 0.679-0.009c0.961-0.017 1.593-0.167 2.383-0.564 0.525-0.265 0.944-0.564 1.414-1.012 0.483-0.453 0.769-0.82 1.021-1.311 0.624-1.209 0.773-2.567 0.431-3.917-0.132-0.517-0.214-0.683-0.41-0.812-0.141-0.094-0.201-0.107-0.423-0.090l-0.261 0.017-2.729 2.73-0.969-0.974-0.974-0.97 1.328-1.333c0.735-0.735 1.354-1.38 1.379-1.431 0.12-0.235 0.013-0.666-0.205-0.82-0.393-0.278-1.781-0.483-2.627-0.389zM28.717 16.983c0 0.017-0.508 0.543-1.127 1.166-0.974 0.974-1.132 1.153-1.157 1.294-0.073 0.384-0.103 0.35 1.593 2.055 0.88 0.88 1.627 1.598 1.704 1.632 0.188 0.081 0.372 0.077 0.559-0.021 0.085-0.047 0.636-0.564 1.226-1.153 0.585-0.59 1.081-1.072 1.098-1.072 0.043 0 0 0.581-0.081 1.025-0.214 1.209-1.046 2.268-2.238 2.837-0.722 0.346-1.55 0.478-2.298 0.372-0.269-0.038-0.384-0.043-0.508 0-0.124 0.038-0.692 0.581-2.592 2.473-2.199 2.187-2.46 2.435-2.712 2.559-0.803 0.384-1.687 0.231-2.323-0.397-0.705-0.696-0.824-1.76-0.282-2.576 0.077-0.111 1.2-1.264 2.498-2.559 2.639-2.627 2.49-2.448 2.409-2.986-0.030-0.167-0.038-0.513-0.026-0.79 0.064-1.329 0.713-2.448 1.875-3.221 0.572-0.376 1.068-0.551 1.772-0.619 0.517-0.051 0.611-0.051 0.611-0.017z">
      </path>
    </symbol>
    <symbol id="icon-hs34" viewBox="0 0 63 32">
      <path fill="#787878" style="fill: var(--color3, #787878); stroke: var(--color3, #787878)" stroke="#787878"
        stroke-linejoin="miter" stroke-linecap="butt" stroke-miterlimit="4" stroke-width="0.4683"
        d="M16.966 0.853c-0.221 0.078-0.654 0.489-0.809 0.755-0.078 0.133-0.155 0.944-0.188 1.944l-0.055 1.722-2.16 0.067c-1.185 0.033-2.171 0.067-2.193 0.078s-0.591 0.18-0.669 0.38c-0.21 0.489 0.414-0.086 0.879 0.147 0.343 0.178 0.809 0.189 5.948 0.167l5.583-0.033 0.266-0.311c0.321-0.378 0.343 0.24 0.033-0.149l-0.222-0.289h-5.638v-2.777h29.353l-0.022 11.575-0.033 11.586-6.458 0.033c-5.106 0.022-6.458 0-6.502-0.111-0.51-1.488-0.975-2.199-1.883-2.888-1.44-1.1-3.5-1.266-5.162-0.411-1.008 0.511-1.927 1.633-2.337 2.822l-0.188 0.555-3.378 0.033-3.389 0.022v-5.11h1.495c1.351 0 1.518-0.022 1.717-0.222 0.332-0.333 0.332-0.263-0.011-0.619-0.21-0.222-0.366-0.222-6.203-0.222h-5.992l-0.266 0.311c-0.321 0.378-0.343 0.074-0.033 0.463l0.222 0.289h7.299v3.155c0 2.933 0.011 3.166 0.21 3.41l0.21 0.267 8.141 0.111 0.133 0.444c0.509 1.733 2.027 3.066 3.877 3.399 2.226 0.411 4.719-1.111 5.35-3.255l0.188-0.644h16.072l0.144 0.555c0.31 1.2 1.34 2.377 2.592 2.944 2.614 1.211 5.649-0.1 6.602-2.833l0.21-0.611 1.041-0.056c1.152-0.067 1.495-0.211 1.872-0.811 0.21-0.333 0.221-0.522 0.188-3.632-0.033-3.221-0.033-3.288-0.31-3.944-0.155-0.367-1.396-2.666-2.747-5.11-2.592-4.677-2.924-5.154-3.744-5.376-0.266-0.078-1.728-0.122-3.777-0.122h-3.345l-0.033-3.366c-0.033-3.31-0.033-3.355-0.288-3.721-0.532-0.744 0.654-0.689-16.161-0.678-8.396 0-15.341 0.033-15.43 0.067zM55.69 10.539c0.365 0.422 5.040 8.976 5.195 9.498 0.122 0.422 0.166 1.189 0.166 3.144v2.599l-1.34-0.067-0.188-0.555c-0.842-2.488-3.345-3.866-5.837-3.221-1.606 0.422-2.968 1.744-3.434 3.333-0.133 0.444-0.133 0.444-0.764 0.478l-0.62 0.033v-15.452h3.323c3.112 0 3.334 0.011 3.5 0.211zM30.247 23.725c0.687 0.2 1.462 0.866 1.806 1.533 0.321 0.622 0.388 1.666 0.155 2.366-0.244 0.733-0.842 1.411-1.551 1.777-0.687 0.355-1.85 0.4-2.537 0.1-0.642-0.278-1.351-1-1.628-1.644-0.299-0.711-0.277-1.9 0.055-2.588 0.465-0.944 1.628-1.7 2.669-1.711 0.244-0.011 0.709 0.067 1.030 0.167zM55.989 23.769c2.105 0.789 2.647 3.632 0.986 5.132-0.642 0.578-1.163 0.789-2.016 0.789-1.717 0.011-2.968-1.155-3.079-2.855-0.055-0.989 0.211-1.7 0.908-2.388 0.864-0.855 2.060-1.111 3.201-0.678z">
      </path>
      <path fill="#0f4485" style="fill: var(--color1, #0f4485)" d="M23.862 18.968v-2.441l2.282 2.441h-2.282z"></path>
      <path fill="#0f4485" style="fill: var(--color1, #0f4485)" d="M34.815 12.561h2.586l-2.586 2.136v-2.136z"></path>
      <path fill="#0f4485" style="fill: var(--color1, #0f4485)"
        d="M29.947 16.528h-4.868l2.13 2.441h2.738c1.978 0 2.738-1.678 2.738-2.441v-1.526c0-1.831-1.68-2.899-2.586-2.899-1.014 0-3.076 0.030-3.195 0-0.608-0.153-0.761-0.555-0.761-1.068s0.304-1.068 0.761-1.068h12.778c2.069 0.366 2.383 2.593 2.282 3.661-0.174 1.831-1.224 2.899-2.738 2.899h-1.825v-2.899l-2.586 2.288v3.051h4.868c2.282 0 4.411-2.288 4.564-4.882 0.031-0.535 0-0.837 0-1.373 0-2.746-2.434-5.034-4.564-5.034h-13.539c-1.376 0-2.282 1.373-2.282 2.288v1.678c0 1.373 0.906 2.593 2.282 2.746h3.803c0.761 0 0.761 2.136 0 2.136z">
      </path>
      <path fill="#787878" style="fill: var(--color3, #787878)"
        d="M8.543 18.969h13.128c0.52 0 0.941 0.421 0.941 0.941v0c0 0.52-0.421 0.941-0.941 0.941h-13.128c-0.52 0-0.941-0.421-0.941-0.941v0c0-0.52 0.421-0.941 0.941-0.941z">
      </path>
      <path fill="#787878" style="fill: var(--color3, #787878)"
        d="M1.038 11.443h13.128c0.52 0 0.941 0.421 0.941 0.941v0c0 0.52-0.421 0.941-0.941 0.941h-13.128c-0.52 0-0.941-0.421-0.941-0.941v0c0-0.52 0.421-0.941 0.941-0.941z">
      </path>
      <path fill="#787878" style="fill: var(--color3, #787878)"
        d="M11.044 4.544h13.128c0.52 0 0.941 0.421 0.941 0.941v0c0 0.52-0.421 0.941-0.941 0.941h-13.128c-0.52 0-0.941-0.421-0.941-0.941v0c0-0.52 0.421-0.941 0.941-0.941z">
      </path>
    </symbol>
    <symbol id="icon-hs81" viewBox="0 0 34 32">
      <path fill="#0f4485" style="fill: var(--color1, #0f4485)"
        d="M17.116 2.341c-5.496 0-9.952 4.368-9.952 9.756s4.456 9.756 9.952 9.756c5.496 0 9.952-4.368 9.952-9.756s-4.456-9.756-9.952-9.756zM4.776 12.098c0-6.681 5.525-12.098 12.341-12.098s12.341 5.416 12.341 12.098c0 1.469-0.267 2.877-0.756 4.179l3.642 3.697c0.41 0.416 0.751 0.762 1.006 1.051 0.251 0.284 0.509 0.61 0.661 0.987 0.531 1.319 0.104 2.879-1.177 3.648-0.368 0.221-0.788 0.313-1.148 0.372-0.369 0.061-0.837 0.109-1.39 0.166l-0.037 0.004c-0.731 0.076-0.87 0.1-0.964 0.135-0.284 0.107-0.517 0.334-0.632 0.65-0.041 0.111-0.065 0.27-0.14 1.006l-0.003 0.035c-0.057 0.564-0.104 1.036-0.163 1.407-0.058 0.361-0.145 0.772-0.355 1.133-0.747 1.283-2.323 1.764-3.689 1.197-0.385-0.16-0.71-0.427-0.988-0.68-0.285-0.259-0.626-0.605-1.035-1.021l-0.031-0.032-5.139-5.307-5.17 5.339c-0.41 0.416-0.751 0.762-1.035 1.021-0.278 0.253-0.604 0.52-0.988 0.68-1.367 0.567-2.942 0.086-3.689-1.197-0.21-0.361-0.298-0.771-0.355-1.133-0.059-0.371-0.107-0.843-0.163-1.407l-0.003-0.035c-0.074-0.736-0.099-0.895-0.139-1.006-0.115-0.316-0.348-0.543-0.632-0.65-0.094-0.035-0.233-0.060-0.964-0.135l-0.037-0.004c-0.553-0.057-1.021-0.106-1.39-0.166-0.361-0.059-0.78-0.151-1.148-0.372-1.281-0.769-1.708-2.329-1.177-3.648 0.152-0.378 0.41-0.703 0.661-0.987 0.255-0.289 0.596-0.635 1.006-1.051l3.642-3.697c-0.489-1.302-0.756-2.71-0.756-4.179zM6.651 18.511l-3.019 3.065c-0.44 0.446-0.735 0.747-0.942 0.981-0.194 0.22-0.24 0.305-0.244 0.314-0.144 0.357-0.001 0.66 0.189 0.783 0.014 0.005 0.095 0.033 0.309 0.068 0.288 0.047 0.684 0.089 1.284 0.151 0.040 0.004 0.080 0.008 0.119 0.012 0.54 0.055 1.021 0.105 1.449 0.265 0.954 0.358 1.683 1.108 2.026 2.048 0.153 0.42 0.201 0.894 0.256 1.447 0.004 0.039 0.008 0.078 0.012 0.117 0.061 0.607 0.102 1.013 0.15 1.31 0.040 0.254 0.073 0.336 0.074 0.341 0.127 0.21 0.388 0.313 0.677 0.195 0 0 0.080-0.043 0.297-0.241 0.23-0.21 0.525-0.508 0.963-0.953l0.004-0.004 4.331-4.473c-3.337-0.683-6.18-2.687-7.932-5.429zM19.65 23.94l4.335 4.476c0.438 0.444 0.733 0.743 0.963 0.953 0.217 0.198 0.297 0.241 0.297 0.241l-0.003-0.001c0.29 0.12 0.552 0.016 0.68-0.194 0.001-0.005 0.034-0.086 0.074-0.341 0.047-0.297 0.089-0.703 0.15-1.31 0.004-0.040 0.008-0.078 0.012-0.117 0.055-0.553 0.102-1.027 0.256-1.447 0.343-0.94 1.072-1.69 2.026-2.048 0.427-0.161 0.909-0.21 1.449-0.265 0.040-0.004 0.079-0.008 0.119-0.012 0.6-0.062 0.995-0.104 1.284-0.151 0.214-0.035 0.295-0.063 0.309-0.068 0.19-0.123 0.332-0.426 0.189-0.783-0.005-0.009-0.050-0.094-0.244-0.314-0.207-0.235-0.503-0.535-0.942-0.981l-3.019-3.065c-1.752 2.742-4.595 4.746-7.932 5.429zM17.116 9.030c-0.093 0.157-0.195 0.338-0.317 0.551l-0.157 0.275c-0.011 0.019-0.023 0.041-0.036 0.063-0.125 0.224-0.332 0.595-0.677 0.852-0.353 0.262-0.777 0.353-1.025 0.405-0.025 0.005-0.048 0.010-0.069 0.015l-0.304 0.067c-0.279 0.062-0.506 0.112-0.7 0.16 0.126 0.152 0.291 0.342 0.504 0.587l0.207 0.238c0.015 0.017 0.031 0.035 0.048 0.054 0.172 0.194 0.449 0.507 0.578 0.912 0.127 0.4 0.083 0.811 0.055 1.071-0.003 0.026-0.005 0.050-0.008 0.073l-0.031 0.317c-0.029 0.294-0.052 0.528-0.067 0.719 0.166-0.072 0.355-0.157 0.579-0.258l0.285-0.128c0.020-0.009 0.041-0.019 0.064-0.029 0.229-0.106 0.626-0.29 1.070-0.29s0.841 0.184 1.070 0.29c0.023 0.011 0.045 0.021 0.064 0.029l0.285 0.128c0.224 0.101 0.413 0.186 0.579 0.258-0.015-0.191-0.038-0.425-0.067-0.719l-0.031-0.317c-0.002-0.023-0.005-0.047-0.008-0.073-0.028-0.26-0.071-0.671 0.055-1.071 0.128-0.405 0.406-0.718 0.578-0.912 0.017-0.019 0.033-0.037 0.048-0.054l0.207-0.238c0.213-0.245 0.378-0.434 0.504-0.587-0.194-0.048-0.422-0.098-0.7-0.16l-0.304-0.067c-0.021-0.005-0.044-0.010-0.069-0.015-0.248-0.053-0.672-0.143-1.025-0.405-0.345-0.257-0.552-0.628-0.677-0.852-0.013-0.023-0.025-0.044-0.036-0.063l-0.157-0.275c-0.121-0.213-0.224-0.394-0.317-0.551zM15.545 7.102c0.274-0.351 0.772-0.858 1.571-0.858s1.297 0.507 1.571 0.858c0.262 0.335 0.525 0.799 0.795 1.274 0.012 0.022 0.025 0.043 0.037 0.065l0.157 0.275c0.036 0.064 0.065 0.114 0.090 0.157 0.044 0.010 0.094 0.021 0.157 0.035l0.304 0.067c0.025 0.006 0.050 0.011 0.075 0.017 0.522 0.116 1.041 0.231 1.439 0.384 0.44 0.17 1.036 0.501 1.265 1.225 0.226 0.711-0.059 1.314-0.308 1.701-0.23 0.358-0.58 0.759-0.938 1.17-0.016 0.019-0.032 0.037-0.049 0.056l-0.207 0.238c-0.055 0.063-0.096 0.11-0.131 0.152 0.005 0.057 0.011 0.123 0.020 0.211l0.031 0.317c0.002 0.024 0.005 0.048 0.007 0.072 0.054 0.549 0.107 1.080 0.088 1.505-0.020 0.445-0.129 1.119-0.746 1.578-0.636 0.473-1.338 0.37-1.784 0.245-0.41-0.115-0.895-0.334-1.384-0.555-0.023-0.011-0.047-0.021-0.070-0.032l-0.285-0.128c-0.053-0.024-0.097-0.044-0.135-0.061-0.038 0.017-0.082 0.037-0.135 0.061l-0.285 0.128c-0.023 0.011-0.047 0.021-0.070 0.032-0.488 0.221-0.973 0.44-1.384 0.555-0.445 0.125-1.148 0.228-1.784-0.245-0.617-0.459-0.726-1.133-0.746-1.578-0.019-0.425 0.033-0.956 0.088-1.505 0.002-0.024 0.005-0.048 0.007-0.072l0.031-0.317c0.009-0.088 0.015-0.154 0.020-0.211-0.035-0.041-0.076-0.089-0.131-0.152l-0.207-0.238c-0.016-0.019-0.032-0.037-0.049-0.056-0.358-0.41-0.708-0.811-0.938-1.17-0.249-0.387-0.533-0.99-0.308-1.701 0.23-0.724 0.826-1.055 1.265-1.225 0.398-0.154 0.917-0.269 1.439-0.384 0.025-0.005 0.050-0.011 0.075-0.017l0.304-0.067c0.063-0.014 0.114-0.025 0.157-0.035 0.025-0.043 0.054-0.093 0.090-0.157l0.157-0.275c0.012-0.022 0.025-0.043 0.037-0.065 0.27-0.475 0.534-0.939 0.795-1.274z">
      </path>
    </symbol>
    <symbol id="icon-hs82" viewBox="0 0 30 32">
      <path fill="#0f4485" style="fill: var(--color1, #0f4485)"
        d="M1.068 12.257c0.597-0.026 1.108 0.424 1.16 1.019l1.445 16.724c0.093 1.074-0.753 2-1.833 2-1.017 0-1.84-0.826-1.84-1.842v-16.787c0-0.598 0.471-1.089 1.068-1.115z">
      </path>
      <path fill="#0f4485" style="fill: var(--color1, #0f4485)"
        d="M15.861 2.275c-0.216-0.069-0.452-0.053-0.652 0.044-0.219 0.106-0.364 0.29-0.417 0.491l-0.708 2.729c-0.247 0.955-0.608 1.875-1.072 2.744-0.721 1.349-1.811 2.387-2.822 3.259l-2.14 1.845c-0.332 0.286-0.506 0.715-0.468 1.152l1.208 13.98c0.061 0.706 0.651 1.247 1.356 1.247h6.916c4.666 0 8.597-3.248 9.351-7.61l1.050-6.072c0.144-0.836-0.498-1.597-1.341-1.597h-7.708c-1.454 0-2.558-1.305-2.323-2.738l0.986-6.020c0.135-0.825 0.096-1.668-0.113-2.477-0.106-0.41-0.43-0.763-0.886-0.909l-0.216-0.069zM14.24 0.308c0.718-0.346 1.545-0.402 2.304-0.158l0.216 0.069c1.156 0.372 2.058 1.295 2.364 2.474 0.288 1.11 0.341 2.267 0.155 3.399l-0.986 6.020c-0.013 0.077 0.047 0.144 0.121 0.144h7.708c2.231 0 3.92 2.013 3.54 4.21l-1.050 6.072c-0.949 5.49-5.858 9.462-11.55 9.462h-6.916c-1.865 0-3.419-1.428-3.579-3.287l-1.208-13.98c-0.1-1.152 0.36-2.281 1.235-3.036l2.14-1.845c0.975-0.84 1.795-1.655 2.311-2.62 0.382-0.715 0.677-1.471 0.88-2.253l0.708-2.729c0.222-0.856 0.817-1.561 1.608-1.942z">
      </path>
    </symbol>
    <symbol id="icon-hs83" viewBox="0 0 30 32">
      <path fill="#0f4485" style="fill: var(--color1, #0f4485)"
        d="M4.58 9.782c0-5.456 4.669-9.782 10.304-9.782 5.508 0 10.093 4.132 10.297 9.414l0.729 0.242c0.707 0.234 1.327 0.439 1.818 0.666 0.531 0.246 1.018 0.562 1.391 1.075s0.52 1.072 0.587 1.651c0.061 0.535 0.061 1.184 0.061 1.924v8.717c0 0.924 0 1.713-0.072 2.345-0.076 0.665-0.246 1.319-0.706 1.877-0.264 0.32-0.585 0.59-0.946 0.796-0.63 0.359-1.307 0.418-1.98 0.383-0.64-0.033-1.423-0.163-2.34-0.315l-0.063-0.011c-1.974-0.327-2.769-0.45-3.544-0.386-0.284 0.024-0.565 0.066-0.843 0.126-0.76 0.165-1.49 0.519-3.296 1.415-0.063 0.031-0.125 0.062-0.186 0.093-2.111 1.049-3.411 1.695-4.814 1.897-0.422 0.061-0.848 0.091-1.274 0.090-1.418-0.003-2.787-0.456-5.007-1.192-0.064-0.021-0.129-0.043-0.195-0.065l-0.643-0.213c-0.707-0.234-1.327-0.439-1.818-0.666-0.531-0.246-1.018-0.562-1.391-1.075s-0.52-1.072-0.587-1.651c-0.061-0.535-0.061-1.184-0.061-1.924v-7.612c-0-1.192-0-2.197 0.103-2.984 0.107-0.822 0.35-1.625 1.016-2.229 0.196-0.178 0.411-0.332 0.643-0.46 0.787-0.436 1.631-0.411 2.45-0.252 0.166 0.032 0.34 0.072 0.522 0.118-0.101-0.676-0.153-1.35-0.153-2.013zM5.341 14.345c-0.653-0.209-1.155-0.355-1.569-0.436-0.603-0.117-0.801-0.046-0.895 0.006-0.077 0.043-0.149 0.094-0.214 0.153-0.080 0.072-0.21 0.236-0.289 0.842-0.081 0.623-0.084 1.479-0.084 2.768v7.476c0 0.817 0.002 1.335 0.047 1.726 0.042 0.362 0.11 0.496 0.169 0.579s0.167 0.189 0.499 0.343c0.359 0.166 0.853 0.331 1.633 0.59l0.586 0.194c2.478 0.821 3.479 1.138 4.482 1.14 0.315 0.001 0.63-0.022 0.942-0.067 0.993-0.143 1.947-0.602 4.305-1.773 0.048-0.024 0.095-0.047 0.142-0.070 1.619-0.804 2.617-1.3 3.69-1.533 0.376-0.082 0.757-0.139 1.141-0.17 1.094-0.091 2.186 0.090 3.957 0.383 0.051 0.008 0.102 0.017 0.154 0.026 0.999 0.165 1.652 0.272 2.147 0.298 0.476 0.025 0.64-0.038 0.72-0.084 0.121-0.069 0.227-0.159 0.315-0.265 0.059-0.071 0.148-0.221 0.202-0.692 0.056-0.489 0.058-1.147 0.058-2.153v-8.593c0-0.818-0.002-1.335-0.047-1.726-0.042-0.362-0.11-0.496-0.169-0.579s-0.167-0.189-0.499-0.343c-0.359-0.166-0.853-0.331-1.633-0.59l-0.090-0.030c-0.29 1.973-0.997 3.966-2.039 5.744-1.393 2.378-3.431 4.449-5.984 5.556-1.355 0.587-2.91 0.587-4.265 0-2.553-1.107-4.591-3.178-5.984-5.556-0.586-1.001-1.066-2.069-1.426-3.164zM14.884 2.275c-4.482 0-8.014 3.415-8.014 7.507 0 2.149 0.668 4.52 1.876 6.583s2.913 3.745 4.921 4.615c0.771 0.334 1.663 0.334 2.434 0 2.008-0.87 3.712-2.551 4.921-4.615s1.876-4.434 1.876-6.583c0-4.092-3.532-7.507-8.014-7.507zM14.884 8.341c-1.054 0-1.908 0.849-1.908 1.896s0.854 1.896 1.908 1.896 1.908-0.849 1.908-1.896c0-1.047-0.854-1.896-1.908-1.896zM10.686 10.236c0-2.303 1.88-4.17 4.198-4.17s4.198 1.867 4.198 4.17c0 2.303-1.879 4.17-4.198 4.17s-4.198-1.867-4.198-4.17z">
      </path>
    </symbol>
    <symbol id="icon-inastallation" viewBox="0 0 37 32">
      <path fill="#0f4485" style="fill: var(--color1, #0f4485)"
        d="M12.187 0h12.788c1.553-0 2.848-0 3.876 0.138 1.085 0.146 2.065 0.467 2.852 1.255s1.108 1.768 1.254 2.854c0.138 1.029 0.138 2.325 0.138 3.879v12.599l2.729 2.821 0.014 0.017c0.005 0.005 0.012 0.014 0.021 0.026 0.642 0.745 1.215 1.858 1.294 2.971l0.001 0.006c0.002 0.018 0.003 0.033 0.004 0.041l0.001 0.022 0.001 0.023 0.001 0.021 0 0.011 0 0.027 0 0.025v0.014l-0 0.019-0 0.017-0 0.008c0 0.018 0 0.037 0 0.058 0 0.226 0.001 0.552-0.008 0.691-0.151 2.391-2.055 4.296-4.444 4.447-0.151 0.010-0.319 0.009-0.537 0.009h-27.182c-0.218 0-0.386 0-0.537-0.009-2.389-0.151-4.293-2.056-4.444-4.447-0.009-0.138-0.008-0.461-0.008-0.687 0-0.022 0-0.042 0-0.062l-0-0.008-0-0.017-0-0.019v-0.014l0-0.025 0-0.027 0-0.011 0.001-0.021 0.001-0.023 0.001-0.022c0.001-0.008 0.002-0.023 0.004-0.041l0.001-0.006c0.078-1.112 0.651-2.225 1.294-2.971 0.009-0.011 0.016-0.021 0.021-0.026l0.014-0.017 0.015-0.018 0.014-0.015 0.007-0.008 0.018-0.020 0.017-0.018 0.023-0.024 0.012-0.012 0.007-0.006 2.615-2.701v-12.599c-0-1.554-0-2.85 0.138-3.879 0.146-1.086 0.467-2.066 1.254-2.854s1.767-1.109 2.852-1.255c1.028-0.138 2.323-0.138 3.876-0.138zM5.912 22.548l-2.617 2.703c-0.394 0.439-0.681 1.084-0.701 1.518 0 0.037-0 0.075-0 0.113-0 0.092-0 0.185 0 0.272 0 0.064 0.001 0.12 0.001 0.165 0.001 0.034 0.001 0.052 0.001 0.059 0.069 1.087 0.934 1.954 2.020 2.023 0.058 0.004 0.136 0.004 0.414 0.004h27.101c0.278 0 0.356-0.001 0.414-0.004 1.086-0.069 1.951-0.935 2.020-2.021-0 0.006 0.001-0.009 0.001-0.060 0.001-0.044 0.001-0.1 0.001-0.164 0-0.089 0-0.185 0-0.28 0-0.035 0-0.070-0-0.105-0.020-0.434-0.307-1.079-0.701-1.518l-2.617-2.703h-25.338zM30.502 19.954v-11.737c0-1.667-0.003-2.788-0.115-3.623-0.107-0.798-0.293-1.14-0.518-1.365s-0.567-0.411-1.364-0.518c-0.835-0.112-1.954-0.115-3.621-0.115h-12.608c-1.666 0-2.786 0.003-3.621 0.115-0.798 0.107-1.139 0.293-1.364 0.518s-0.411 0.567-0.518 1.365c-0.112 0.836-0.115 1.956-0.115 3.623v11.737h23.843zM35.295 25.555c0.013-0.004 0.026-0.008 0.037-0.013 0.005-0.003 0.010-0.005 0.015-0.008-0.017 0.007-0.035 0.014-0.052 0.021zM35.375 25.558c0.010-0.005 0.020-0.010 0.030-0.014 0.004-0.001 0.009-0.003 0.014-0.004-0.015 0.006-0.029 0.012-0.044 0.018zM1.786 25.558c-0.010-0.005-0.020-0.010-0.029-0.014-0.004-0.001-0.009-0.002-0.013-0.004 0.014 0.006 0.029 0.012 0.043 0.018zM1.867 25.555c-0.018-0.007-0.036-0.014-0.054-0.022 0.005 0.003 0.010 0.006 0.015 0.009 0.012 0.004 0.025 0.009 0.038 0.013zM12.963 26.378c0-0.716 0.58-1.297 1.296-1.297h8.643c0.716 0 1.296 0.581 1.296 1.297s-0.58 1.297-1.296 1.297h-8.643c-0.716 0-1.296-0.581-1.296-1.297z">
      </path>
      <path fill="#0f4485" style="fill: var(--color1, #0f4485)"
        d="M19.877 6.054c0 0.716-0.58 1.297-1.296 1.297s-1.296-0.581-1.296-1.297c0-0.716 0.58-1.297 1.296-1.297s1.296 0.581 1.296 1.297z">
      </path>
    </symbol>
    <symbol id="icon-insta" viewBox="0 0 32 32">
      <path fill="#0f4485" style="fill: var(--color1, #0f4485)"
        d="M16.004 7.796c-4.54 0-8.203 3.663-8.203 8.204s3.662 8.204 8.203 8.204c4.54 0 8.202-3.663 8.202-8.204s-3.662-8.204-8.202-8.204zM16.004 21.334c-2.934 0-5.333-2.392-5.333-5.334s2.392-5.334 5.333-5.334c2.941 0 5.333 2.392 5.333 5.334s-2.399 5.334-5.333 5.334zM26.455 7.46c0 1.064-0.857 1.914-1.913 1.914-1.064 0-1.913-0.857-1.913-1.914s0.857-1.914 1.913-1.914c1.057 0 1.913 0.857 1.913 1.914zM31.888 9.402c-0.121-2.563-0.707-4.834-2.584-6.705-1.87-1.871-4.14-2.456-6.703-2.585-2.641-0.15-10.558-0.15-13.2 0-2.556 0.121-4.826 0.707-6.703 2.578s-2.456 4.141-2.584 6.705c-0.15 2.642-0.15 10.561 0 13.203 0.121 2.563 0.707 4.834 2.584 6.705s4.141 2.456 6.703 2.585c2.641 0.15 10.558 0.15 13.2 0 2.563-0.121 4.833-0.707 6.703-2.585 1.87-1.871 2.456-4.142 2.584-6.705 0.15-2.642 0.15-10.554 0-13.196zM28.475 25.433c-0.557 1.4-1.635 2.478-3.041 3.042-2.106 0.835-7.103 0.643-9.43 0.643s-7.332 0.186-9.431-0.643c-1.399-0.557-2.477-1.635-3.041-3.042-0.835-2.106-0.643-7.105-0.643-9.433s-0.186-7.333 0.643-9.433c0.557-1.4 1.635-2.478 3.041-3.042 2.106-0.835 7.103-0.643 9.431-0.643s7.331-0.186 9.43 0.643c1.399 0.557 2.477 1.635 3.041 3.042 0.835 2.106 0.642 7.105 0.642 9.433s0.193 7.333-0.642 9.433z">
      </path>
    </symbol>
    <symbol id="icon-linkedin" viewBox="0 0 34 32">
      <path fill="#0f4485" style="fill: var(--color1, #0f4485)"
        d="M7.561 32h-7.003v-21.365h7.003v21.365zM4.056 7.721c-2.239 0-4.056-1.757-4.056-3.879 0-1.019 0.427-1.996 1.188-2.717s1.792-1.125 2.868-1.125c1.076 0 2.107 0.405 2.868 1.125s1.188 1.698 1.188 2.717c0 2.121-1.817 3.879-4.056 3.879zM33.77 32h-6.988v-10.4c0-2.479-0.053-5.657-3.641-5.657-3.641 0-4.199 2.693-4.199 5.479v10.579h-6.995v-21.365h6.716v2.914h0.098c0.935-1.679 3.219-3.45 6.626-3.45 7.087 0 8.39 4.422 8.39 10.165v11.736h-0.007z">
      </path>
    </symbol>
    <symbol id="icon-locally" viewBox="0 0 31 32">
      <path fill="#0f4485" style="fill: var(--color1, #0f4485)"
        d="M4.92 9.782c0-5.457 4.787-9.782 10.564-9.782 5.647 0 10.348 4.132 10.557 9.414l0.748 0.242c0.725 0.234 1.36 0.439 1.864 0.666 0.545 0.246 1.044 0.562 1.426 1.075s0.534 1.072 0.602 1.651c0.063 0.535 0.063 1.184 0.063 1.924v8.717c0 0.924 0 1.713-0.074 2.345-0.078 0.665-0.252 1.319-0.724 1.877-0.271 0.32-0.6 0.59-0.97 0.797-0.645 0.359-1.34 0.418-2.030 0.383-0.656-0.033-1.459-0.163-2.399-0.315l-0.065-0.011c-2.023-0.327-2.839-0.45-3.633-0.386-0.291 0.024-0.579 0.066-0.865 0.126-0.779 0.165-1.528 0.519-3.379 1.415-0.064 0.031-0.128 0.062-0.191 0.093-2.164 1.049-3.497 1.695-4.936 1.897-0.433 0.061-0.869 0.091-1.307 0.090-1.454-0.003-2.857-0.456-5.134-1.192-0.066-0.021-0.132-0.043-0.2-0.065l-0.659-0.213c-0.725-0.234-1.36-0.439-1.864-0.666-0.545-0.246-1.044-0.562-1.426-1.075s-0.534-1.072-0.602-1.651c-0.063-0.535-0.063-1.184-0.063-1.924v-7.612c-0-1.192-0-2.197 0.105-2.984 0.11-0.822 0.359-1.625 1.041-2.229 0.201-0.178 0.422-0.332 0.659-0.46 0.807-0.436 1.672-0.411 2.511-0.252 0.17 0.032 0.348 0.072 0.535 0.118-0.103-0.676-0.157-1.35-0.157-2.013zM5.7 14.345c-0.67-0.209-1.184-0.355-1.608-0.435-0.618-0.117-0.821-0.046-0.918 0.006-0.079 0.043-0.153 0.094-0.22 0.153-0.082 0.072-0.215 0.236-0.296 0.842-0.083 0.623-0.086 1.479-0.086 2.768v7.476c0 0.817 0.002 1.335 0.048 1.726 0.043 0.362 0.112 0.496 0.174 0.579s0.171 0.189 0.512 0.343c0.368 0.166 0.874 0.331 1.675 0.59l0.6 0.194c2.541 0.821 3.567 1.138 4.595 1.14 0.323 0.001 0.646-0.022 0.966-0.067 1.018-0.143 1.996-0.602 4.413-1.773 0.049-0.024 0.097-0.047 0.145-0.070 1.66-0.804 2.683-1.3 3.783-1.533 0.386-0.082 0.776-0.139 1.17-0.17 1.122-0.091 2.241 0.090 4.057 0.383 0.052 0.008 0.105 0.017 0.158 0.026 1.024 0.165 1.694 0.272 2.201 0.297 0.488 0.025 0.656-0.038 0.738-0.084 0.124-0.069 0.233-0.159 0.323-0.265 0.060-0.071 0.152-0.221 0.207-0.692 0.057-0.489 0.059-1.147 0.059-2.153v-8.593c0-0.817-0.002-1.335-0.048-1.726-0.043-0.362-0.112-0.496-0.174-0.579s-0.171-0.189-0.512-0.343c-0.368-0.166-0.874-0.331-1.675-0.59l-0.092-0.030c-0.298 1.973-1.022 3.966-2.090 5.744-1.428 2.378-3.518 4.449-6.135 5.556-1.389 0.587-2.984 0.587-4.373 0-2.618-1.106-4.707-3.178-6.135-5.556-0.601-1.001-1.093-2.069-1.462-3.164zM15.484 2.275c-4.595 0-8.217 3.415-8.217 7.507 0 2.149 0.685 4.52 1.924 6.583s2.987 3.745 5.045 4.615c0.791 0.334 1.705 0.334 2.496 0 2.058-0.87 3.806-2.551 5.045-4.615s1.924-4.434 1.924-6.583c0-4.092-3.621-7.507-8.217-7.507zM15.484 8.341c-1.080 0-1.956 0.849-1.956 1.896s0.876 1.896 1.956 1.896 1.956-0.849 1.956-1.896c0-1.047-0.876-1.896-1.956-1.896zM11.18 10.236c0-2.303 1.927-4.17 4.304-4.17s4.304 1.867 4.304 4.17c0 2.303-1.927 4.17-4.304 4.17s-4.304-1.867-4.304-4.17z">
      </path>
    </symbol>
    <symbol id="icon-location" viewBox="0 0 26 32">
      <path fill="#0f4485" style="fill: var(--color1, #0f4485)"
        d="M12.952 1.397c6.452 0 11.683 5.845 11.683 12.413 0 6.516-3.729 13.599-9.546 16.318-1.356 0.634-2.917 0.634-4.273 0-5.818-2.719-9.546-9.802-9.546-16.318 0-6.568 5.23-12.413 11.683-12.413zM12.952 16c1.613 0 2.921-1.308 2.921-2.921s-1.308-2.921-2.921-2.921c-1.613 0-2.921 1.308-2.921 2.921s1.308 2.921 2.921 2.921z">
      </path>
    </symbol>
    <symbol id="icon-mail" viewBox="0 0 41 32">
      <path fill="#0f4485" style="fill: var(--color1, #0f4485)"
        d="M2.374 2.343c-2.374 2.343-2.374 6.114-2.374 13.657s0 11.314 2.374 13.657c2.374 2.343 6.196 2.343 13.839 2.343h8.107c7.643 0 11.465 0 13.839-2.343s2.374-6.115 2.374-13.657c0-7.542 0-11.314-2.374-13.657s-6.196-2.343-13.839-2.343h-8.107c-7.643 0-11.465 0-13.839 2.343zM33.594 7.040c0.537 0.636 0.45 1.582-0.195 2.113l-4.451 3.661c-1.796 1.477-3.252 2.675-4.537 3.49-1.339 0.85-2.642 1.386-4.144 1.386s-2.806-0.537-4.144-1.386c-1.285-0.816-2.741-2.013-4.537-3.49l-4.452-3.661c-0.645-0.53-0.732-1.476-0.195-2.113s1.496-0.722 2.141-0.192l4.375 3.598c1.891 1.555 3.204 2.631 4.312 3.334 1.073 0.681 1.8 0.909 2.5 0.909s1.427-0.229 2.5-0.909c1.108-0.703 2.421-1.78 4.312-3.334l4.375-3.598c0.645-0.53 1.603-0.444 2.141 0.192z">
      </path>
    </symbol>
    <symbol id="icon-sps41" viewBox="0 0 34 32">
      <path fill="#787878" style="fill: var(--color3, #787878)"
        d="M17.509 5.392c-6.025 0-10.91 4.885-10.91 10.91s4.885 10.91 10.91 10.91c6.025 0 10.91-4.885 10.91-10.91s-4.885-10.91-10.91-10.91zM4.83 16.302c0-7.003 5.677-12.679 12.679-12.679s12.679 5.677 12.679 12.679c0 7.003-5.677 12.679-12.679 12.679s-12.679-5.677-12.679-12.679z">
      </path>
      <path fill="#0f4485" style="fill: var(--color1, #0f4485)"
        d="M17.509 8.453c0.467 0 0.845 0.39 0.845 0.872v0.368c1.838 0.339 3.381 1.764 3.381 3.702 0 0.482-0.378 0.872-0.845 0.872s-0.845-0.39-0.845-0.872c0-0.789-0.636-1.624-1.691-1.922v4.034c1.838 0.339 3.381 1.764 3.381 3.702s-1.544 3.362-3.381 3.702v0.368c0 0.482-0.378 0.872-0.845 0.872s-0.845-0.39-0.845-0.872v-0.368c-1.838-0.339-3.381-1.764-3.381-3.702 0-0.482 0.378-0.872 0.845-0.872s0.845 0.39 0.845 0.872c0 0.789 0.636 1.624 1.691 1.922v-4.034c-1.838-0.339-3.381-1.764-3.381-3.702s1.544-3.362 3.381-3.702v-0.368c0-0.482 0.378-0.872 0.845-0.872zM16.664 11.473c-1.055 0.298-1.691 1.133-1.691 1.922s0.636 1.624 1.691 1.922v-3.843zM18.355 17.287v3.843c1.055-0.298 1.691-1.133 1.691-1.922s-0.636-1.624-1.691-1.922z">
      </path>
    </symbol>
    <symbol id="icon-twitter" viewBox="0 0 40 32">
      <path fill="#0f4485" style="fill: var(--color1, #0f4485)"
        d="M35.466 7.975c0.025 0.35 0.025 0.7 0.025 1.050 0 10.675-8.152 22.975-23.051 22.975-4.59 0-8.854-1.325-12.441-3.625 0.652 0.075 1.279 0.1 1.956 0.1 3.787 0 7.274-1.275 10.058-3.45-3.562-0.075-6.546-2.4-7.575-5.6 0.502 0.075 1.003 0.125 1.53 0.125 0.727 0 1.455-0.1 2.132-0.275-3.712-0.75-6.496-4-6.496-7.925v-0.1c1.079 0.6 2.333 0.975 3.662 1.025-2.182-1.45-3.612-3.925-3.612-6.725 0-1.5 0.401-2.875 1.104-4.075 3.988 4.9 9.983 8.1 16.705 8.45-0.125-0.6-0.201-1.225-0.201-1.85 0-4.45 3.612-8.075 8.101-8.075 2.333 0 4.44 0.975 5.919 2.55 1.831-0.35 3.587-1.025 5.142-1.95-0.602 1.875-1.881 3.45-3.562 4.45 1.63-0.175 3.211-0.625 4.665-1.25-1.103 1.6-2.483 3.025-4.063 4.175z">
      </path>
    </symbol>
  </defs>
</svg>